<?xml version="1.0" standalone="no"?>
<!DOCTYPE svg PUBLIC "-//W3C//DTD SVG 1.1//EN" "http://www.w3.org/Graphics/SVG/1.1/DTD/svg11.dtd" >
<!--
2013-9-30: Created.
-->
<svg>
<metadata>
Created by iconfont
</metadata>
<defs>

<font id="iconfont" horiz-adv-x="1024" >
  <font-face
    font-family="iconfont"
    font-weight="500"
    font-stretch="normal"
    units-per-em="1024"
    ascent="896"
    descent="-128"
  />
    <missing-glyph />
    
    <glyph glyph-name="x" unicode="x" horiz-adv-x="1001"
d="M281 543q-27 -1 -53 -1h-83q-18 0 -36.5 -6t-32.5 -18.5t-23 -32t-9 -45.5v-76h912v41q0 16 -0.5 30t-0.5 18q0 13 -5 29t-17 29.5t-31.5 22.5t-49.5 9h-133v-97h-438v97zM955 310v-52q0 -23 0.5 -52t0.5 -58t-10.5 -47.5t-26 -30t-33 -16t-31.5 -4.5q-14 -1 -29.5 -0.5
t-29.5 0.5h-32l-45 128h-439l-44 -128h-29h-34q-20 0 -45 1q-25 0 -41 9.5t-25.5 23t-13.5 29.5t-4 30v167h911zM163 247q-12 0 -21 -8.5t-9 -21.5t9 -21.5t21 -8.5q13 0 22 8.5t9 21.5t-9 21.5t-22 8.5zM316 123q-8 -26 -14 -48q-5 -19 -10.5 -37t-7.5 -25t-3 -15t1 -14.5
t9.5 -10.5t21.5 -4h37h67h81h80h64h36q23 0 34 12t2 38q-5 13 -9.5 30.5t-9.5 34.5q-5 19 -11 39h-368zM336 498v228q0 11 2.5 23t10 21.5t20.5 15.5t34 6h188q31 0 51.5 -14.5t20.5 -52.5v-227h-327z" />
    

    
    <glyph glyph-name="dingwei" unicode="&#59039;" d="M510.615978 833.646883c-185.28903 0-335.492984-150.203954-335.492984-335.49196 0-185.288007 150.203954-335.512427 335.492984-335.512427 185.28596 0 335.496054 150.22442 335.496054 335.512427C846.113055 683.441906 695.902962 833.646883 510.615978 833.646883M510.615978 340.526883c-87.055728 0-157.629063 70.573335-157.629063 157.627017s70.573335 157.627017 157.629063 157.627017c87.059821 0 157.627017-70.573335 157.627017-157.627017S597.6758 340.526883 510.615978 340.526883M239.179916 301.028287 510.615978-62.955588 776.097422 292.992263Z"  horiz-adv-x="1024" />

    
    <glyph glyph-name="jiaotong" unicode="&#58955;" d="M512 896C229.233664 896 0 666.766336 0 384c0-282.76736 229.233664-512 512-512 282.76736 0 512 229.23264 512 512C1024 666.766336 794.76736 896 512 896L512 896zM512-83.500032C253.83424-83.500032 44.500992 125.800448 44.500992 384S253.83424 851.500032 512 851.500032c258.199552 0 467.500032-209.30048 467.500032-467.500032S770.199552-83.500032 512-83.500032L512-83.500032zM512-83.500032M691.666944 643.533824 332.33408 643.533824c-44.133376 0-79.86688-35.733504-79.86688-79.86688l0-93.1328 0-66.533376 0-173.067264c0-29.400064 23.8336-53.199872 53.233664-53.199872 0-29.400064 23.8336-53.266432 53.233664-53.266432 25.9328 0 47.466496 18.533376 52.200448 43.066368 28.466176-1.800192 60.665856-3.13344 94.199808-3.13344 37.399552 0 74.665984 1.667072 107.465728 3.800064 4.466688-24.833024 26.133504-43.732992 52.267008-43.732992 29.400064 0 53.199872 23.866368 53.199872 53.266432 29.400064 0 53.267456 23.799808 53.267456 53.199872L771.534848 403.999744l0 66.533376 0 93.1328C771.533824 607.80032 735.766528 643.533824 691.666944 643.533824zM356.133888 254.000128c-28.767232 0-52.067328 23.300096-52.067328 51.999744 0 28.73344 23.300096 52.032512 52.067328 52.032512 28.699648 0 51.999744-23.300096 51.999744-52.032512C408.133632 277.300224 384.833536 254.000128 356.133888 254.000128zM667.867136 254.000128c-28.73344 0-51.999744 23.300096-51.999744 51.999744 0 28.73344 23.267328 52.032512 51.999744 52.032512s52.032512-23.300096 52.032512-52.032512C719.899648 277.300224 696.599552 254.000128 667.867136 254.000128zM719.899648 495.616l0-29.682688 0-22.079488c0-15.808512-15.04768-24.892416-32.743424-28.622848-46.150656-9.728-75.163648-17.408-178.92864-17.408-95.574016-0.512-133.718016 9.984-171.418624 17.408-17.742848 3.493888-32.7424 12.814336-32.7424 28.622848l0 22.112256L304.06656 495.616l0 40.317952c0 30.932992 24.067072 56.000512 53.666816 56.000512l308.533248 0c29.599744 0 53.633024-25.066496 53.633024-56.000512L719.899648 495.616z"  horiz-adv-x="1024" />

    
    <glyph glyph-name="kexuanzuo" unicode="&#59179;" d="M928 895.997 96 895.997c-53.018 0-96-42.976-96-95.994l0-832.007c0-53.011 42.982-95.994 96-95.994l832 0c53.018 0 96 42.982 96 95.994L1024 800.003C1024 853.021 981.018 895.997 928 895.997zM305.216 475.37c-0.474-41.075-1.53-78.266-3.168-111.584-1.651-33.331-4.115-63.36-7.392-90.112-3.29-26.752-7.514-51.392-12.672-73.92-5.171-22.528-11.264-43.539-18.304-63.008-7.04-19.469-15.257-38.829-24.64-58.08-6.579 5.171-13.85 8.922-21.824 11.264-7.987 2.355-18.304 4.224-30.976 5.632 15.488 17.843 28.864 41.427 40.128 70.752 11.264 29.325 20.064 66.176 26.4 110.528 6.336 44.352 9.965 97.382 10.912 159.104 0.934 61.709-0.704 134.112-4.928 217.184 11.725-2.355 38.72-3.763 80.96-4.224 42.24-0.474 100.672-0.704 175.296-0.704-13.146 14.08-30.976 29.094-53.504 45.056l38.72 37.312c14.08-16.435 26.752-31.571 38.016-45.408 11.264-13.85 20.877-26.17 28.864-36.96 68.518 0 122.726 0.352 162.624 1.056 39.885 0.704 65.229 1.99 76.032 3.872l0-42.944c-5.632 0.934-14.784 1.638-27.456 2.112-12.672 0.461-27.226 0.934-43.648 1.408-16.435 0.461-33.914 0.704-52.448 0.704L304.512 614.41C305.446 562.774 305.677 516.432 305.216 475.37zM749.44 412.01c17.83-10.099 35.661-21.242 53.504-33.44l-28.864-38.016c-13.619 14.541-28.282 28.038-44 40.48-15.731 12.429-32.979 24.288-51.744 35.552-6.106-12.672-12.794-25.696-20.064-39.072-7.283-13.376-14.202-25.696-20.768-36.96-6.579 6.566-13.024 11.725-19.36 15.488-6.336 3.75-15.379 6.093-27.104 7.04 22.054 21.12 40.48 46.816 55.264 77.088 14.784 30.272 24.992 66.989 30.624 110.176 8.909-6.106 17.126-10.56 24.64-13.376 7.501-2.816 14.784-4.698 21.824-5.632 7.501-0.947 11.725-3.763 12.672-8.448 0.934-4.698-2.355-8.691-9.856-11.968-4.698-2.355-9.504-8.096-14.432-17.248-4.928-9.152-12.09-25.466-21.472-48.928C711.885 433.008 731.597 422.096 749.44 412.01zM481.92 417.642c15.949-13.376 30.733-27.347 44.352-41.888l-36.608-28.864c-5.171 7.974-10.208 15.245-15.136 21.824-4.928 6.566-10.208 12.781-15.84 18.656-5.632 5.862-12.09 11.846-19.36 17.952-7.283 6.093-15.84 12.672-25.696 19.712-7.04-17.843-15.379-35.795-24.992-53.856-9.626-18.074-18.899-33.21-27.808-45.408-6.579 6.566-13.267 11.725-20.064 15.488-6.81 3.75-15.61 6.093-26.4 7.04 10.79 8.909 21.35 20.294 31.68 34.144 10.317 13.837 19.712 29.568 28.16 47.168 8.448 17.6 15.84 36.608 22.176 57.024s10.912 41.645 13.728 63.712c8.448-5.171 16.544-9.747 24.288-13.728 7.744-3.994 15.84-6.458 24.288-7.392 6.093-0.947 9.504-3.52 10.208-7.744 0.704-4.224-1.76-7.514-7.392-9.856-6.106-2.816-11.859-7.866-17.248-15.136-5.402-7.283-11.386-19.834-17.952-37.664C447.424 444.746 465.958 431.018 481.92 417.642zM822.656 94.154c-15.488 1.408-31.802 2.586-48.928 3.52-17.139 0.947-36.147 1.76-57.024 2.464-20.89 0.704-43.77 1.178-68.64 1.408-24.883 0.243-52.8 0.352-83.776 0.352-35.2 0-65.594-0.109-91.168-0.352-25.587-0.23-48.224-0.704-67.936-1.408-19.712-0.704-37.312-1.517-52.8-2.464-15.488-0.934-30.976-2.112-46.464-3.52l0 50.688c14.08-1.408 28.39-2.464 42.944-3.168 14.541-0.704 30.733-1.408 48.576-2.112 17.83-0.704 38.016-1.286 60.544-1.76 22.528-0.461 49.037-0.704 79.552-0.704L537.536 241.29c-37.555 0-72.16-0.352-103.84-1.056-31.68-0.704-58.08-2.003-79.2-3.872L354.496 280.01c21.12-1.408 47.52-2.586 79.2-3.52 31.68-0.947 66.285-1.408 103.84-1.408L537.536 403.914c0 29.568-0.122 55.142-0.352 76.736-0.243 21.581-0.474 39.885-0.704 54.912-0.243 15.014-0.704 26.982-1.408 35.904-0.704 8.909-1.53 15.718-2.464 20.416 9.382-3.29 18.656-5.28 27.808-5.984 9.152-0.704 17.709-0.595 25.696 0.352 7.04 0.934 10.912-1.408 11.616-7.04 0.704-5.632-2.234-10.33-8.8-14.08-3.763-2.355-6.227-7.04-7.392-14.08-1.178-7.04-1.76-14.554-1.76-22.528l0-253.44c38.95 0 74.733 0.352 107.36 1.056 32.614 0.704 59.718 1.99 81.312 3.872l0-43.648c-21.594 1.869-48.698 3.168-81.312 3.872-32.627 0.704-68.41 1.056-107.36 1.056l0-104.192c32.384 0 60.422 0.122 84.128 0.352 23.693 0.243 44.813 0.704 63.36 1.408 18.534 0.704 35.309 1.53 50.336 2.464 15.014 0.947 30.029 2.112 45.056 3.52L822.656 94.154z"  horiz-adv-x="1024" />

    
    <glyph glyph-name="jiazai" unicode="&#59036;" d="M689.536 649.536l-227.52 227.52 0-153.536c-197.28-24.512-350.048-192.512-350.048-396.544s152.768-372.064 350.048-396.544l0 101.024c-141.76 23.744-250.048 147.008-250.048 295.552s108.256 271.776 250.048 295.552l0-195.52 227.52 222.528zM908.544 376.992c-8.512 69.504-36.256 136.512-81.248 194.528l-70.752-70.752c26.752-37.76 43.744-80 51.008-123.776l101.024 0zM562.016 31.712l0-101.28c69.504 8.512 137.024 35.52 195.04 80.512l-71.776 71.776c-37.504-26.496-79.52-43.52-123.264-51.008zM756.544 153.216l70.752-70.752c44.992 58.016 72.768 125.024 81.248 194.528l-101.024 0c-7.264-43.744-24.256-86.016-51.008-123.776z"  horiz-adv-x="1024" />

    
    <glyph glyph-name="jiantou-copy" unicode="&#58887;" d="M876.165 381.094l-371.397 511.729-371.397-511.729h182.128v-509.096h374.011v509.096h186.654z"  horiz-adv-x="1024" />

    
    <glyph glyph-name="youhui" unicode="&#58882;" d="M492.033966 440.086389l-139.994024 0 0-1.841951c0-6.964622 1.228018-11.464099 3.684053-13.507642 2.456036-2.052752 7.157297-3.069919 14.122204-3.069919l122.187766 0L492.033966 440.086389zM492.033966 510.694517l-122.187766 0c-7.780516 0-12.692587-1.438769-14.736213-4.297886-2.052836-2.868327-3.070044-6.964622-3.070044-12.279674l0-1.841951 139.994024 0L492.033966 510.694517zM678.692665 365.794359l-120.34574 0 0-14.121626 121.572734 4.91187C679.096887 358.628146 678.692665 361.698065 678.692665 365.794359zM686.981785 425.657772c2.244202 2.657526 3.378072 6.850012 3.378072 12.586666l0 1.841951-132.011908 0 0-18.419512 112.977633 0C679.508273 421.666878 684.727349 422.990013 686.981785 425.657772zM690.359857 494.116957c0 5.727445-1.333423 9.91993-3.991058 12.586666-2.665822 2.657526-7.675111 3.990894-15.042194 3.990894l-112.977633 0 0-18.419512 132.011908 0L690.36088 494.116957zM512.000512 832.185602c-247.536655 0-448.204989-200.659089-448.204989-448.185602 0-247.52549 200.667311-448.185602 448.204989-448.185602 247.535632 0 448.203966 200.660112 448.203966 448.185602C960.203454 631.526513 759.536143 832.185602 512.000512 832.185602zM238.4483 308.693874c0 10.226922 1.938221 17.901719 5.833084 23.024389 3.885653 5.112438 11.560764 7.876388 23.025333 8.28878l224.727249 8.595772 0 17.191544-152.274201 0c-10.648961 0-19.446684 1.017166-26.402382 3.069919-6.964907 2.043542-12.492011 5.420453-16.57824 10.130731-4.096463 4.701069-6.964907 10.639315-8.596124 17.805528-1.640427 7.157004-2.456036 16.059767-2.456036 26.708292l0 86.571704c0 20.875446 4.087252 35.505655 12.280178 43.899836 8.183715 8.384971 22.10432 12.586666 41.752604 12.586666l152.274201 0 0 18.419512-221.657204 0c-11.05216 0-18.832676 2.657526-23.332337 7.981788-4.508872 5.315052-6.754098 12.481266-6.754098 21.48943 0 9.82374 2.043626 17.191544 6.140089 22.103414 4.087252 4.91187 12.068344 7.367805 23.946346 7.367805l221.657204 0 0 14.121626c0 11.867282 2.764063 19.84907 8.28912 23.945365 5.52608 4.087085 13.8152 6.139837 24.868383 6.139837s19.34128-2.052752 24.868383-6.139837c5.524033-4.096295 8.28912-12.078083 8.28912-23.945365l0-14.121626 211.833062 0c11.454336 0 19.437474-2.455935 23.946346-7.367805 4.498638-4.91187 6.754098-12.279674 6.754098-22.103414 0-9.008164-2.456036-16.174378-7.36913-21.48943-4.911048-5.324262-12.691563-7.981788-23.331314-7.981788l-211.833062 0 0-18.419512 142.449036 0c19.649307 0 33.866683-4.604878 42.67464-13.814634 8.796701-9.209756 13.199144-23.436782 13.199144-42.671868l0-86.571704c0-20.875446-4.709448-36.023448-14.121181-45.434795 9.824142-9.008164 19.743455-19.339464 29.779431-31.006178 10.025742-11.665691 19.129447-22.822798 27.322372-33.462113 9.000347-11.464099 12.991404-21.393239 11.974196-29.779234-1.027442-8.394181-5.018499-15.253402-11.974196-20.568455-7.779492-5.735631-15.868036-8.192589-24.252327-7.366781-8.394525 0.815575-17.499253 7.980765-27.322372 21.48943-2.870491 3.270487-5.737913 6.848988-8.596124 10.744715-2.868445 3.885494-5.938489 7.674796-9.210133 11.358699l-462.348684-19.647479c-7.781539 0.815575-14.736213 3.684926-20.876302 8.594749C240.904336 293.344281 238.035891 300.098101 238.4483 308.693874zM554.663895 176.687374c-6.965931 3.683902-12.492011 10.236132-16.579263 19.646456-3.279831 8.193613-6.349875 14.630209-9.210133 19.340487-2.868445 4.701069-7.165484 11.148921-12.894186 19.340487-12.280178 17.593703-10.237575 31.716352 6.140089 42.364877 6.955697 4.498454 13.603367 6.541997 19.955288 6.139837 6.341688-0.413416 12.989358-5.324262 19.955288-14.735609 6.955697-10.237155 12.481777-18.419512 16.577216-24.559349 4.087252-6.139837 7.983139-13.718443 11.666169-22.717398 3.271644-9.420557 4.605067-17.804505 3.991058-25.174356-0.614009-7.366781-5.832061-13.506619-15.65825-18.419512l0.616056 0.615007C569.802284 173.617455 561.619592 173.003472 554.663895 176.687374zM350.197916 215.982332l0-0.615007c-4.096463-8.193613-8.08752-16.059767-11.973173-23.639396-3.894863-7.568373-7.982115-14.936177-12.280178-22.103414-4.298062-7.157004-9.008534-14.322194-14.122204-21.48943-5.122881-7.157004-10.956988-14.630209-17.499253-22.409382-9.008534-10.639315-18.218667-16.57756-27.630399-17.805528-9.420943-1.227967-17.806257 1.641383-25.174364 8.595772-7.368107 6.964622-10.85056 15.042601-10.438151 24.252357 0.403199 9.209756 5.113671 18.323321 14.122204 27.321252 10.227341 10.648524 19.542879 22.103414 27.937404 34.383088 8.385315 12.279674 14.832408 23.945365 19.34128 34.998095 4.912071 11.866259 11.253759 19.848047 19.034275 23.944342 7.771306 4.086062 16.57824 3.885494 26.402382-0.615007 10.63975-4.910846 16.36743-11.156084 17.192249-18.72548C355.925595 234.498034 354.285168 225.806071 350.197916 215.982332zM699.56999 151.82001c-2.052836-10.4367-5.834108-18.72548-11.359164-24.866341-5.52608-6.139837-13.201191-10.638291-23.025333-13.506619-9.826189-2.859118-22.517752-4.912893-38.069574-6.139837-11.051136-0.404206-24.358755-0.710175-39.910577-0.920976-15.560008-0.201591-31.621457-0.306992-48.199697-0.306992s-32.543494 0.210801-47.893716 0.613984c-15.350222 0.412392-28.148214 1.026376-38.375555 1.841951-16.37664 1.641383-29.472426 3.789303-39.296568 6.447852-9.824142 2.665713-17.297653 6.753821-22.411324 12.279674-5.122881 5.52483-8.49993 12.692067-10.131146 21.488407-1.640427 8.807596-2.456036 20.367887-2.456036 34.69008l0 59.556421c0 10.639315 3.166239 18.419512 9.517138 23.331381 6.341688 4.912893 13.8152 7.367805 22.411324 7.367805 9.824142 0 17.700853-2.454912 23.639342-7.367805 5.929279-4.91187 8.903129-12.691043 8.903129-23.331381l0-58.94346c0-6.955412 1.938221-11.760858 5.833084-14.428617 3.885653-2.657526 12.788782-4.393054 26.710409-5.218862 5.726656-0.404206 14.630808-0.709151 26.709386-0.920976 12.068344-0.201591 24.964578-0.306992 38.683583-0.306992l39.602549 0c12.6844 0 22.717305 0.210801 30.086435 0.615007 12.682353 0.411369 21.383882 2.148943 26.095377 5.218862 4.701261 3.069919 6.849269 10.130731 6.44607 21.181415 0 12.279674 2.860258 20.875446 8.596124 25.78834 5.728703 4.910846 13.095786 7.366781 22.10432 7.366781 8.596124 0 15.551821-2.665713 20.876302-7.981788 5.314247-5.324262 7.983139-12.894681 7.983139-22.717398C702.640034 175.871799 701.612593 162.258757 699.56999 151.82001zM818.687712 145.988188c-1.64145-8.595772-5.940536-15.138792-12.896233-19.647479l1.229041 1.227967c-7.781539-6.54302-15.562055-9.516748-23.333361-8.902764-7.781539 0.613984-15.148622 6.446829-22.10432 17.499559-9.421966 15.148002-18.112239 28.348652-26.095377 39.600927-7.983139 11.262508-17.097077 22.822798-27.322372 34.69008l0.614009 0c-9.421966 10.226922-14.429209 19.033495-15.044241 26.4013-0.614009 7.367805 3.166239 15.752776 11.361211 25.174356 6.542265 5.726421 13.911394 8.182356 22.10432 7.366781 8.182692-0.825808 15.752398-5.324262 22.717305-13.506619 11.454336-13.105482 21.798338-25.78834 31.008472-38.068014s19.129447-26.803459 29.779431-43.592844C817.66027 164.004517 820.318929 154.58396 818.687712 145.988188z"  horiz-adv-x="1024" />

    
    <glyph glyph-name="piao" unicode="&#58907;" d="M430.144-60.96c-22.72 0-44 8.96-59.872 25.248l-68.064 70.176c-12.288 12.672-12 32.832 0.608 45.184 14.272 13.92 22.24 32.544 22.464 52.48 0.224 19.904-7.328 38.688-21.248 52.928-27.904 28.576-77.056 29.152-105.504 1.312-6.08-5.952-15.328-9.056-22.784-9.12-8.512 0.128-16.64 3.584-22.56 9.728l-67.968 70.048c-15.52 15.808-24.032 36.928-23.808 59.296 0.256 22.4 9.216 43.328 25.248 59.008L530.112 809.856c32.192 31.328 87.168 30.624 118.4-1.312l68.128-70.208c12.288-12.672 12-32.864-0.64-45.184-14.24-13.952-22.24-32.608-22.464-52.544-0.224-19.936 7.328-38.72 21.216-52.992 27.872-28.48 77.056-29.12 105.6-1.248 6.08 5.952 14.688 8.384 22.784 9.12 8.512-0.128 16.64-3.616 22.528-9.728l67.936-70.112c15.488-15.712 24-36.768 23.808-59.104-0.192-22.4-9.12-43.392-25.12-59.072L488.672-37.12c-15.808-15.392-36.576-23.84-58.528-23.84z m-62.336 119.744l48.352-49.888c7.264-7.392 20.224-7.648 27.808-0.224l443.52 434.464a19.789 19.789 0 0 1 5.952 13.952c0.032 5.216-1.952 10.112-5.6 13.824l-48.352 49.92c-21.312-12.832-45.824-19.68-71.296-19.68-37.664 0-72.864 14.816-99.2 41.76-25.888 26.464-39.872 61.408-39.456 98.432 0.32 26.176 7.776 51.136 21.504 72.672l-48.384 49.856c-7.2 7.328-20.256 7.552-27.84 0.192L131.392 329.568c-3.808-3.712-5.92-8.672-5.984-13.92-0.032-5.248 1.952-10.176 5.6-13.952l48.32-49.824c21.312 12.832 45.792 19.68 71.232 19.68 37.664 0 72.928-14.848 99.232-41.824 25.856-26.432 39.904-61.376 39.456-98.368-0.288-26.112-7.744-51.072-21.44-72.576z m-13.6 253.984a31.912 31.912 0 0 0-22.624 9.376c-12.512 12.512-12.512 32.736 0 45.248L510.24 546.08c12.512 12.512 32.768 12.512 45.28 0 12.48-12.48 12.48-32.736 0-45.248L376.864 322.144a32.04 32.04 0 0 0-22.656-9.376z m95.616-95.584a31.912 31.912 0 0 0-22.624 9.376c-12.512 12.512-12.512 32.736 0 45.248l178.656 178.688c12.512 12.512 32.736 12.512 45.248 0 12.512-12.48 12.512-32.736 0-45.248L472.448 226.56c-6.272-6.24-14.464-9.376-22.624-9.376z"  horiz-adv-x="1024" />

    
    <glyph glyph-name="p" unicode="&#59002;" d="M439.36 167.104c-0 0-0 0-0 0-10.003 0-18.112 8.109-18.112 18.112l0 198.144v154.24c0 9.984 8.128 18.112 18.112 18.112h125.824c53.248 0 96.576-42.816 96.576-95.424s-43.264-95.488-96.576-95.488l-107.712 0.448v-180.096c-0.036-9.975-8.131-18.048-18.112-18.048-0 0-0 0-0 0zM457.472 401.408l107.84-0.448c33.216 0 60.352 26.56 60.352 59.264s-27.136 59.264-60.48 59.264h-107.712v-118.080zM520.64-64c-247.040 0-448 200.96-448 448s200.96 448 448 448 448-200.96 448-448-200.96-448-448-448zM520.64 795.84c-227.072 0-411.84-184.768-411.84-411.84s184.768-411.84 411.84-411.84c227.072 0 411.84 184.768 411.84 411.84s-184.768 411.84-411.84 411.84z"  horiz-adv-x="1024" />

    
    <glyph glyph-name="zuowei1" unicode="&#58888;" d="M818.696 489.581h-93.609c-22.377 0-40.503-20.028-40.503-44.73v-124.47h-345.168v124.47c0 24.702-18.125 44.73-40.502 44.73h-93.609c-22.377 0-40.503-20.028-40.503-44.73v-340.983c0-24.703 18.126-44.731 40.503-44.731h93.609c22.377 0 40.502 20.028 40.502 44.731v41.898h345.168v-41.898c0-24.703 18.126-44.731 40.503-44.731h93.609c22.377 0 40.503 20.028 40.503 44.731v340.983c0 24.702-18.127 44.73-40.503 44.73zM263.74 548.864c0.424-0.445 0.888-0.805 1.333-1.226 2.115-1.671 4.588-3.321 7.318-4.931 2.582-1.606 5.054-3.172 7.973-4.207 22.163-10.641 101.246-23.43 101.012-58.235v-116.571h261.245v117.291c-0.232 41.254 73.054 46.835 94.434 56.733 18.698 4.801 32.806 21 32.806 41.2v86.629c0 23.923-19.394 43.316-43.316 43.316l-431.798 0c-23.923 0-43.316-19.394-43.316-43.316v-86.629c0-6.24 1.44-12.099 3.807-17.451 0.932-4.333 3.786-8.542 8.502-12.603z"  horiz-adv-x="1024" />

    
    <glyph glyph-name="d" unicode="&#58898;" d="M708.29056 637.47072l-181.30944 108.57984a36.21376 36.21376 0 0 1-37.25312 0L308.42368 637.47072a36.2496 36.2496 0 0 1-17.62816-31.09888v-221.58336a36.2496 36.2496 0 0 1 18.1248-31.39584l181.30944-104.6784a36.2496 36.2496 0 0 1 36.2496 0l181.30944 104.6784a36.2496 36.2496 0 0 1 18.1248 31.39584V606.37184a36.2496 36.2496 0 0 1-17.62304 31.09888z m-195.66592 75.4688l150.85568-91.02336-155.12576-93.34272L357.59616 619.7248l155.02848 93.21472zM334.6688 575.31904l145.21344-87.21408v-180.43392L334.6688 391.18848V575.31904z m196.46464-270.71488V487.05024l149.01248 89.216v-186.02496l-149.01248-85.63712zM512 854.016C252.83072 854.016 41.984 643.16928 41.984 384s210.816-470.016 470.016-470.016c259.16928 0 470.016 210.84672 470.016 470.016S771.16928 854.016 512 854.016z m0-892.032c-232.704 0-422.016 189.312-422.016 422.016S279.296 806.016 512 806.016 934.016 616.704 934.016 384 744.67328-38.016 512-38.016zM438.77888 170.71104c0 5.66272-1.63328 10.25024-4.89984 13.75232-3.26656 3.50208-7.59808 5.248-12.99968 5.248-6.26688 0-11.11552-1.98656-14.55104-5.94944-3.43552-3.96288-5.21728-9.61536-5.3504-16.95232H374.5792c0.19968 14.86336 4.48 26.3168 12.8512 34.35008 8.36608 8.03328 20.15232 12.05248 35.34848 12.05248 13.06624 0 23.76704-3.79904 32.1024-11.40224 8.33024-7.59808 12.49792-17.36704 12.49792-29.30176 0-10.33728-4.33664-18.80064-12.99968-25.40032l-3.90144-2.60096a31.43168 31.43168 0 0 0 8.80128-5.00224c8.33024-6.46656 12.49792-16.19968 12.49792-29.19936 0-14.336-4.51584-25.7024-13.54752-34.0992-9.0368-8.40192-21.21728-12.60032-36.55168-12.60032-15.80032 0-28.05248 4.15232-36.75136 12.45184s-13.14816 20.11648-13.34784 35.45088h27.89888c0.13312-8.20224 1.98144-14.44864 5.55008-18.74944 3.56352-4.3008 8.71424-6.4512 15.45216-6.4512 6.53312 0 11.8016 2.16576 15.80032 6.5024s6.00064 10.0352 6.00064 17.1008c0 6.20032-2.00192 11.20256-6.00064 15.0016-3.5328 3.26656-8.00256 5.09952-13.39904 5.49888a154.3168 154.3168 0 0 1-8.35072 0.34816c-2.56512 0.03584-4.21888-0.0512-4.95104-0.25088v21.20192c0.79872-0.13312 2.49856-0.14848 5.09952-0.0512s5.36576 0.31744 8.29952 0.65024c4.5312 0.53248 8.13056 2.0992 10.79808 4.70016 3.33824 3.2 5.00224 7.76704 5.00224 13.70112zM552.47872 214.41024h62.8992c20.1984 0 35.54816-5.93408 46.04928-17.80224s15.74912-29.2352 15.74912-52.10112c0-25.20064-5.44768-44.34944-16.34816-57.45152s-26.88512-19.65056-47.9488-19.65056H552.47872v147.00544z m30.69952-121.7024h25.90208c12.4672 0 21.81632 4.21376 28.05248 12.65152s9.34912 21.08416 9.34912 37.94944c0 15.26272-2.89792 26.71616-8.69888 34.35008s-14.53568 11.44832-26.19904 11.44832h-28.40064v-96.39936z"  horiz-adv-x="1024" />

    
    <glyph glyph-name="jiantou-down" unicode="&#58893;" d="M534.43 121.344l479.157 479.122c13.907 13.943 13.907 36.48 0 50.422-13.943 13.943-36.515 13.943-50.458 0l-455.765-455.73-448.241 448.205c-13.516 13.551-35.446 13.551-48.961 0-13.586-13.515-13.586-35.446 0-48.995l465.464-465.5c1.819-1.819 4.030-2.71 6.133-4.030 0.82-1.105 1.248-2.461 2.282-3.495 13.907-13.907 36.48-13.907 50.387 0z"  horiz-adv-x="1024" />

    
    <glyph glyph-name="next" unicode="&#58917;" d="M445.647-81.040c-0.010-0-0.022-0-0.034-0-7.073 0-13.474 2.879-18.094 7.53-9.97 10.012-9.936 26.21 0.075 36.179l413.843 412.086-412.085 413.844c-9.969 10.012-9.934 26.21 0.077 36.179 10.012 9.97 26.21 9.935 36.179-0.077l430.138-431.972c4.607-4.625 7.455-11.006 7.455-18.051 0-7.084-2.879-13.495-7.531-18.127l-431.972-430.137c-4.614-4.606-10.985-7.455-18.020-7.455-0.011 0-0.022 0-0.033 0z"  horiz-adv-x="1024" />

    
    <glyph glyph-name="you" unicode="&#58885;" d="M774.656 406.43l-479.122 479.157c-13.943 13.907-36.48 13.907-50.422 0-13.943-13.943-13.943-36.515 0-50.458l455.73-455.765-448.205-448.241c-13.551-13.516-13.551-35.446 0-48.961 13.515-13.586 35.446-13.586 48.995 0l465.5 465.464c1.819 1.819 2.71 4.030 4.030 6.133 1.105 0.82 2.461 1.248 3.495 2.282 13.907 13.907 13.907 36.48 0 50.387z"  horiz-adv-x="1024" />

    
    <glyph glyph-name="tong" unicode="&#59026;" d="M512-70.4c-246.4 0-448 201.6-448 448s201.6 448 448 448 448-201.6 448-448c0-249.6-201.6-448-448-448z m0 860.8c-227.2 0-416-185.6-416-416s185.6-416 416-416 416 185.6 416 416-188.8 416-416 416zM355.2 355.2v-134.4c38.4-38.4 105.6-57.6 208-57.6 99.2 0 172.8 3.2 220.8 12.8-9.6-16-16-35.2-16-54.4-121.6 0-204.8 0-256 3.2-51.2 3.2-89.6 16-121.6 32s-51.2 19.2-64 6.4c-9.6-12.8-22.4-28.8-38.4-54.4-12.8 16-25.6 28.8-41.6 38.4 22.4 22.4 48 41.6 70.4 57.6v192c-12.8 0-32 0-57.6-3.2v41.6c22.4 0 57.6-3.2 96-3.2v-76.8z m25.6 179.2c-16-9.6-28.8-19.2-41.6-32-9.6 22.4-28.8 51.2-57.6 89.6l38.4 28.8c25.6-38.4 48-67.2 60.8-86.4z m358.4 86.4c-22.4-25.6-41.6-48-67.2-67.2-22.4-22.4-44.8-41.6-60.8-57.6h131.2c0-32-3.2-64-3.2-96v-156.8c0-19.2-3.2-32-16-38.4-12.8-6.4-28.8-12.8-54.4-16-3.2 12.8-9.6 28.8-22.4 48 22.4 0 38.4 3.2 44.8 6.4 6.4 3.2 9.6 16 9.6 41.6H598.4V192h-41.6v92.8h-99.2V192H416c0 48 3.2 99.2 3.2 147.2s0 99.2-3.2 153.6h131.2c-6.4 12.8-25.6 28.8-48 48l28.8 28.8c25.6-22.4 44.8-35.2 57.6-48 22.4 25.6 41.6 44.8 57.6 57.6h-144c-28.8 0-57.6 0-80-3.2v48c22.4 0 48-3.2 73.6-3.2h246.4zM560 412.8v48h-99.2v-48H560z m0-89.6v54.4h-99.2v-54.4H560z m140.8 89.6v48H598.4v-48h102.4z m0-89.6v54.4H598.4v-54.4h102.4z"  horiz-adv-x="1024" />

    
    <glyph glyph-name="dianhua" unicode="&#58889;" d="M799.151753-127.680017h-0.703963a260.53051 260.53051 0 0 0-41.213866 4.351775 243.891372 243.891372 0 0 0-51.261346 15.487198C395.075675 36.535481 164.497614 267.114542 20.441073 577.370478c-28.478525 66.428561-32.63831 163.126554 24.574728 220.403588L105.300679 858.058944A130.425247 130.425247 0 0 0 202.831629 895.880986a129.273307 129.273307 0 0 0 93.370166-46.845574l88.25143-107.130453c44.79768-54.26919 41.021876-132.728128-8.703549-182.453553l-33.726254-33.790251c89.531364-127.353406 184.63044-222.452482 311.599866-311.727859l33.854248 33.854247a135.352992 135.352992 0 0 0 182.517549 8.767546l107.066457-88.315428a129.337303 129.337303 0 0 0 9.151526-190.901115l-48.189505-48.189505a29.182489 29.182489 0 0 0-40.957879 0 29.054496 29.054496 0 0 0 0 41.085873l48.061511 48.125508a71.036322 71.036322 0 0 1-5.055738 105.274549l-107.00246 88.315427a77.627981 77.627981 0 0 1-104.697579-5.056738l-50.941362-50.941362a28.926502 28.926502 0 0 0-36.798095-3.455821c-149.944236 102.202708-257.65066 209.909131-360.173351 360.301344a29.054496 29.054496 0 0 0 3.391824 36.798095l50.941363 50.877366a77.627981 77.627981 0 0 1 5.055738 104.634582L251.533108 812.17232a70.012375 70.012375 0 0 1-51.452336 25.726668c-20.158956 0.95995-39.421959-6.399669-53.757217-20.734926l-60.348875-60.284879C45.207791 716.050297 56.023231 641.303168 73.366333 601.048252c139.768763-301.039413 354.60464-515.939286 656.476009-656.156026a202.805499 202.805499 0 0 1 69.949378-14.655241 28.990499 28.990499 0 0 0-0.639967-57.917002z"  horiz-adv-x="1024" />

    
    <glyph glyph-name="zuowei" unicode="&#58919;" d="M21.333 384c0-0 0-0 0-0 0-270.988 219.679-490.667 490.667-490.667 270.988 0 490.667 219.679 490.667 490.667 0 0 0 0 0 0 0 270.988-219.679 490.667-490.667 490.667-270.988 0-490.667-219.679-490.667-490.667zM512-117.333c-276.437 0-501.333 224.896-501.333 501.333s224.896 501.333 501.333 501.333 501.333-224.896 501.333-501.333-224.896-501.333-501.333-501.333zM512 864c-264.683 0-480-215.317-480-480 0-264.661 215.317-480 480-480 264.661 0 480 215.339 480 480 0 264.683-215.339 480-480 480zM718.336 462.187h-34.539v73.344c0 16.064-10.923 29.099-24.213 29.099h-295.787c-13.291 0-24.213-13.035-24.213-29.099v-73.344h-34.539v79.403c0 30.613 22.443 55.467 49.899 55.467h313.515c27.456 0 49.899-24.853 49.899-55.467v-79.403zM714.496 106.731h-40.149c-29.227 0-52.843 25.451-52.843 56.661v0.597h-219.627v-0.597c0-31.211-23.915-56.661-52.843-56.661h-40.149c-29.227 0-52.843 25.451-52.843 56.661v255.765c0 31.211 20.949 56.661 49.899 56.661h37.205c45.76 0 58.752-25.451 58.752-56.661v-103.040l219.349 0.299 0.299 102.741c0 31.211 18.304 56.363 56.085 56.363h43.093c29.227 0 46.933-25.451 46.933-56.661v-255.765c-0.32-30.912-23.936-56.363-53.163-56.363zM371.179 197.333h280.747v-21.205c0-14.848 10.923-26.965 24.512-26.965h36.011c13.589 0 24.512 12.117 24.512 26.965v229.995c0 14.848-10.923 26.965-24.512 26.965h-36.011c-13.589 0-24.512-12.117-24.512-26.965l-0.299-125.163-280.448-0.299v125.461c0 14.848-10.923 26.965-24.512 26.965h-36.011c-13.589 0-24.512-12.117-24.512-26.965v-230.016c0-14.848 10.923-26.965 24.512-26.965h36.011c13.589 0 24.512 12.117 24.512 26.965v21.227z"  horiz-adv-x="1024" />

    
    <glyph glyph-name="arrow-circle-top" unicode="&#58880;" d="M513.165 687.344c9.933 0 19.286-3.507 26.297-10.519l264.745-264.745c7.012-7.011 10.521-16.365 10.521-26.299s-3.505-19.285-10.521-26.297l-53.182-53.183c-7.013-7.012-16.366-11.104-26.301-11.104s-19.283 4.091-26.297 11.104l-110.458 110.456v-293.38c0-20.454-16.949-37.403-37.403-37.403h-74.808c-20.454 0-37.401 16.949-37.401 37.402v293.379l-110.457-110.457c-7.013-7.012-16.362-10.519-26.298-10.52-9.936 0-19.287 3.504-26.3 10.519l-53.182 53.183c-7.013 7.012-10.519 16.362-10.519 26.297s3.504 19.287 10.519 26.3l264.742 264.745c7.014 7.012 16.365 10.519 26.302 10.519zM513.165 834.034c-247.794 0-448.837-201.042-448.837-448.835 0-247.796 201.042-448.836 448.837-448.836 247.793 0 448.835 201.040 448.835 448.836 0 247.793-201.042 448.835-448.835 448.835z"  horiz-adv-x="1024" />

    
    <glyph glyph-name="shouye" unicode="&#58991;" d="M512 714.616L114.552 363.04 77.448 404.96 512 789.384l434.552-384.416-37.104-41.936L512 714.616zM444 244v-256h-280V368h56v-324h168v256h248v-256h168V368h56v-380h-280v256h-136z m354.856 325.272V683.424H678.544v56h176.312v-170.16h-56z"  horiz-adv-x="1024" />

    
    <glyph glyph-name="dianyingpiao" unicode="&#58937;" d="M757.489 522.634c-13.372-10.487-29.757-16.174-47.017-16.174-42.105 0-76.36 34.246-76.36 76.34 0 17.263 5.693 33.65 16.19 47.02l-48.487 48.486c-5.87 5.856-13.93 9.22-22.105 9.22-7.784 0-15.068-2.991-20.505-8.423l-342.508-342.57c-5.51-5.483-8.543-12.849-8.557-20.755-0.014-8.2 3.305-16.24 9.11-22.058l48.464-48.464c13.395 10.559 29.832 16.285 47.161 16.285 42.104 0 76.358-34.246 76.358-76.34 0-17.33-5.732-33.766-16.303-47.16l48.928-48.928c5.574-5.574 12.893-8.644 20.608-8.644 7.926 0 15.486 3.198 21.286 9.004l342.57 342.56c5.731 5.73 8.885 13.175 8.88 20.96-0.004 7.71-3.116 15.058-8.763 20.692l-48.95 48.95z m-414.28-225.05l-14.202 14.257 38.297 38.26 14.202-14.22-38.297-38.297z m62.355 62.336l-14.22 14.257 178.322 178.275 14.202-14.184L405.564 359.92z m33.916-158.57l-14.203 14.183 38.262 38.298 14.22-14.22-38.28-38.262z m62.32 62.337l-14.185 14.257 178.321 178.255 14.204-14.184L501.8 263.687zM511.674 830.913c-246.806 0-446.912-200.086-446.912-446.908 0-246.81 200.107-446.917 446.912-446.917 246.824 0 446.913 200.107 446.913 446.917 0 246.822-200.09 446.908-446.913 446.908z m307.817-412.048L476.924 76.31c-9.315-9.323-21.553-14.461-34.456-14.461-0.001 0 0 0 0 0-12.688 0-24.683 5.007-33.774 14.097l-55.136 55.136a9.31 9.31 0 0 0 0.021 13.187c10.987 10.917 17.036 25.454 17.036 40.932 0 31.826-25.9 57.718-57.737 57.718-15.482 0-30.021-6.044-40.939-17.019a9.309 9.309 0 0 0-6.59-2.744h-0.01c-2.47 0-4.838 0.98-6.584 2.727l-54.678 54.677c-9.276 9.298-14.579 22.143-14.555 35.25 0.022 12.884 5.004 24.925 14.025 33.905l342.497 342.557c8.96 8.949 20.914 13.874 33.669 13.874 13.068 0 25.922-5.346 35.264-14.666l54.685-54.686a9.313 9.313 0 0 0-0.003-13.17c-10.913-10.905-16.923-25.403-16.923-40.825 0-31.827 25.902-57.719 57.738-57.719 15.423 0 29.923 6.005 40.83 16.91 3.636 3.634 9.53 3.635 13.166-0.002l55.131-55.13c9.163-9.142 14.218-21.167 14.224-33.855 0.007-12.762-5.084-24.886-14.334-34.137z"  horiz-adv-x="1024" />

    
    <glyph glyph-name="icon-test" unicode="&#58911;" d="M894.61283307236 31.639213185132007c-33.89111256745397 142.69942406479566-140.91568246729355 249.72399396463524-272.91264954210527 285.39885059791504 85.61965591987165 39.24234229660784 144.48316813062155 126.64573981398155 144.48316813062155 228.31907998466724 0 137.34819680396552-110.59205556316758 249.72399396463524-244.3727667038051 249.72399396463524-135.5644527381397 0-244.3727667038051-112.37579716066963-244.3727642354814-249.72399396463524 0-101.67334017068569 58.86351221074986-189.07673768805947 144.48316813062155-228.31907998466724-133.78071114063755-35.674856633279866-239.02153697465124-144.48316813062155-272.912652010429-285.39885059791504-1.7837415975020943-5.351227260830082 0-10.702456989983956 3.567485663327985-16.05368425081404 3.567485663327985-3.567485663327985 8.918712924158065-7.13497132665597 14.26994265331194-7.13497132665597h713.4971252606256c5.351227260830082 0 10.702456989983956 1.7837415975020943 14.26994265331194 7.13497132665597 0 5.351227260830082 1.7837415975020943 10.702456989983956 0 16.05368425081404zM521.8105849570708 696.9752832249915c-82.05217025654366 0-148.05065379394955-67.78222760323175-148.05065379394955-151.61813945727744 0-5.351227260830082-3.567485663327985-8.918712924158065-8.918712924158065-8.918712924158065s-8.918712924158065 3.567485663327985-8.918715392481861 8.918712924158065c0 92.75462724652762 74.91719892988772 169.4555677739174 165.88808211058944 169.4555677739174 5.351227260830082 0 8.918712924158065-3.567485663327985 8.918715392481861-8.918712924158065s-5.351227260830082-8.918712924158065-8.918715392481861-8.918715392481861z"  horiz-adv-x="1024" />

    
    <glyph glyph-name="menu" unicode="&#58890;" d="M832.2 631.4H192.3c-35.2 0-64 28.8-64 64s28.8 64 64 64h639.8c35.2 0 64-28.8 64-64 0.1-35.2-28.7-64-63.9-64zM832.2 318.1H196.1c-35.2 0-64 28.8-64 64s28.8 64 64 64h636.1c35.2 0 64-28.8 64-64s-28.8-64-64-64zM832.2-0.8999999999999773H192.3c-35.2 0-64 28.8-64 64s28.8 64 64 64h639.8c35.2 0 64-28.8 64-64 0.1-35.2-28.7-64-63.9-64z"  horiz-adv-x="1024" />

    


  </font>
</defs>
</svg>
